<mxfile host="app.diagrams.net" modified="2023-01-25T21:10:19.496Z" agent="5.0 (Macintosh; Intel Mac OS X 10_15_7) AppleWebKit/537.36 (KHTML, like Gecko) Chrome/109.0.0.0 Safari/537.36" etag="yGXg5HRWsrAqdos9FA3a" version="20.8.11" type="github">
  <diagram name="Page-1" id="dR8ggON6Wb4wZX4EKsab">
    <mxGraphModel dx="1114" dy="728" grid="1" gridSize="10" guides="1" tooltips="1" connect="1" arrows="1" fold="1" page="1" pageScale="1" pageWidth="1100" pageHeight="850" math="1" shadow="0">
      <root>
        <mxCell id="0" />
        <mxCell id="1" parent="0" />
        <mxCell id="bqFS861DvB25ZtFm9QSx-69" value="" style="rounded=0;whiteSpace=wrap;html=1;fontSize=20;" parent="1" vertex="1">
          <mxGeometry x="650" y="270" width="440" height="170" as="geometry" />
        </mxCell>
        <mxCell id="bqFS861DvB25ZtFm9QSx-4" value="" style="shape=cube;whiteSpace=wrap;html=1;boundedLbl=1;backgroundOutline=1;darkOpacity=0.05;darkOpacity2=0.1;size=10;" parent="1" vertex="1">
          <mxGeometry x="160" y="20" width="60" height="60" as="geometry" />
        </mxCell>
        <mxCell id="bqFS861DvB25ZtFm9QSx-5" value="" style="shape=cube;whiteSpace=wrap;html=1;boundedLbl=1;backgroundOutline=1;darkOpacity=0.05;darkOpacity2=0.1;size=10;" parent="1" vertex="1">
          <mxGeometry x="250" y="20" width="60" height="60" as="geometry" />
        </mxCell>
        <mxCell id="bqFS861DvB25ZtFm9QSx-6" value="" style="shape=cube;whiteSpace=wrap;html=1;boundedLbl=1;backgroundOutline=1;darkOpacity=0.05;darkOpacity2=0.1;size=20;" parent="1" vertex="1">
          <mxGeometry x="250" y="110" width="60" height="60" as="geometry" />
        </mxCell>
        <mxCell id="bqFS861DvB25ZtFm9QSx-7" value="" style="shape=cube;whiteSpace=wrap;html=1;boundedLbl=1;backgroundOutline=1;darkOpacity=0.05;darkOpacity2=0.1;size=20;" parent="1" vertex="1">
          <mxGeometry x="340" y="110" width="60" height="60" as="geometry" />
        </mxCell>
        <mxCell id="bqFS861DvB25ZtFm9QSx-8" value="" style="shape=cube;whiteSpace=wrap;html=1;boundedLbl=1;backgroundOutline=1;darkOpacity=0.05;darkOpacity2=0.1;size=30;" parent="1" vertex="1">
          <mxGeometry x="340" y="200" width="60" height="60" as="geometry" />
        </mxCell>
        <mxCell id="bqFS861DvB25ZtFm9QSx-9" value="" style="shape=cube;whiteSpace=wrap;html=1;boundedLbl=1;backgroundOutline=1;darkOpacity=0.05;darkOpacity2=0.1;size=30;" parent="1" vertex="1">
          <mxGeometry x="430" y="200" width="60" height="60" as="geometry" />
        </mxCell>
        <mxCell id="bqFS861DvB25ZtFm9QSx-10" value="" style="shape=cube;whiteSpace=wrap;html=1;boundedLbl=1;backgroundOutline=1;darkOpacity=0.05;darkOpacity2=0.1;size=40;" parent="1" vertex="1">
          <mxGeometry x="430" y="280" width="60" height="60" as="geometry" />
        </mxCell>
        <mxCell id="bqFS861DvB25ZtFm9QSx-11" value="" style="shape=cube;whiteSpace=wrap;html=1;boundedLbl=1;backgroundOutline=1;darkOpacity=0.05;darkOpacity2=0.1;size=50;" parent="1" vertex="1">
          <mxGeometry x="430" y="370" width="60" height="60" as="geometry" />
        </mxCell>
        <mxCell id="bqFS861DvB25ZtFm9QSx-24" value="" style="endArrow=classic;html=1;rounded=0;" parent="1" edge="1">
          <mxGeometry width="50" height="50" relative="1" as="geometry">
            <mxPoint x="400" y="230" as="sourcePoint" />
            <mxPoint x="430" y="230" as="targetPoint" />
            <Array as="points" />
          </mxGeometry>
        </mxCell>
        <mxCell id="bqFS861DvB25ZtFm9QSx-25" value="" style="endArrow=classic;html=1;rounded=0;" parent="1" edge="1">
          <mxGeometry width="50" height="50" relative="1" as="geometry">
            <mxPoint x="500" y="399.69" as="sourcePoint" />
            <mxPoint x="580" y="399.69" as="targetPoint" />
            <Array as="points">
              <mxPoint x="560" y="399.69" />
            </Array>
          </mxGeometry>
        </mxCell>
        <mxCell id="bqFS861DvB25ZtFm9QSx-26" value="" style="endArrow=classic;html=1;rounded=0;" parent="1" edge="1">
          <mxGeometry width="50" height="50" relative="1" as="geometry">
            <mxPoint x="640" y="219.73" as="sourcePoint" />
            <mxPoint x="670" y="220" as="targetPoint" />
            <Array as="points" />
          </mxGeometry>
        </mxCell>
        <mxCell id="bqFS861DvB25ZtFm9QSx-27" value="" style="endArrow=classic;html=1;rounded=0;" parent="1" edge="1">
          <mxGeometry width="50" height="50" relative="1" as="geometry">
            <mxPoint x="730" y="139.73" as="sourcePoint" />
            <mxPoint x="760" y="140" as="targetPoint" />
            <Array as="points" />
          </mxGeometry>
        </mxCell>
        <mxCell id="bqFS861DvB25ZtFm9QSx-28" value="" style="endArrow=classic;html=1;rounded=0;" parent="1" edge="1">
          <mxGeometry width="50" height="50" relative="1" as="geometry">
            <mxPoint x="820" y="39.73" as="sourcePoint" />
            <mxPoint x="850" y="40" as="targetPoint" />
            <Array as="points" />
          </mxGeometry>
        </mxCell>
        <mxCell id="bqFS861DvB25ZtFm9QSx-30" value="" style="endArrow=classic;html=1;rounded=0;" parent="1" edge="1">
          <mxGeometry width="50" height="50" relative="1" as="geometry">
            <mxPoint x="369.81" y="170" as="sourcePoint" />
            <mxPoint x="369.81" y="200" as="targetPoint" />
            <Array as="points" />
          </mxGeometry>
        </mxCell>
        <mxCell id="bqFS861DvB25ZtFm9QSx-31" value="" style="endArrow=classic;html=1;rounded=0;" parent="1" edge="1">
          <mxGeometry width="50" height="50" relative="1" as="geometry">
            <mxPoint x="279.68" y="80" as="sourcePoint" />
            <mxPoint x="279.68" y="110" as="targetPoint" />
            <Array as="points" />
          </mxGeometry>
        </mxCell>
        <mxCell id="bqFS861DvB25ZtFm9QSx-32" value="" style="endArrow=classic;html=1;rounded=0;dashed=1;" parent="1" edge="1">
          <mxGeometry width="50" height="50" relative="1" as="geometry">
            <mxPoint x="459.69" y="340" as="sourcePoint" />
            <mxPoint x="459.69" y="370" as="targetPoint" />
            <Array as="points" />
          </mxGeometry>
        </mxCell>
        <mxCell id="bqFS861DvB25ZtFm9QSx-33" value="" style="endArrow=classic;html=1;rounded=0;" parent="1" edge="1">
          <mxGeometry width="50" height="50" relative="1" as="geometry">
            <mxPoint x="459.68" y="260" as="sourcePoint" />
            <mxPoint x="459.68" y="285" as="targetPoint" />
            <Array as="points" />
          </mxGeometry>
        </mxCell>
        <mxCell id="bqFS861DvB25ZtFm9QSx-34" value="" style="endArrow=classic;html=1;rounded=0;" parent="1" edge="1">
          <mxGeometry width="50" height="50" relative="1" as="geometry">
            <mxPoint x="699.73" y="190.0000000000001" as="sourcePoint" />
            <mxPoint x="700" y="160" as="targetPoint" />
            <Array as="points" />
          </mxGeometry>
        </mxCell>
        <mxCell id="bqFS861DvB25ZtFm9QSx-35" value="" style="endArrow=classic;html=1;rounded=0;dashed=1;" parent="1" edge="1">
          <mxGeometry width="50" height="50" relative="1" as="geometry">
            <mxPoint x="609.76" y="370.0000000000001" as="sourcePoint" />
            <mxPoint x="609.76" y="340" as="targetPoint" />
            <Array as="points" />
          </mxGeometry>
        </mxCell>
        <mxCell id="bqFS861DvB25ZtFm9QSx-37" value="" style="endArrow=classic;html=1;rounded=0;" parent="1" edge="1">
          <mxGeometry width="50" height="50" relative="1" as="geometry">
            <mxPoint x="789.73" y="100.00000000000011" as="sourcePoint" />
            <mxPoint x="790" y="70" as="targetPoint" />
            <Array as="points" />
          </mxGeometry>
        </mxCell>
        <mxCell id="bqFS861DvB25ZtFm9QSx-39" value="" style="endArrow=classic;html=1;rounded=0;dashed=1;" parent="1" edge="1">
          <mxGeometry width="50" height="50" relative="1" as="geometry">
            <mxPoint x="910" y="39.730000000000004" as="sourcePoint" />
            <mxPoint x="940" y="40" as="targetPoint" />
            <Array as="points" />
          </mxGeometry>
        </mxCell>
        <mxCell id="bqFS861DvB25ZtFm9QSx-43" value="$$\symbf{\hat{&lt;br style=&quot;font-size: 20px;&quot;&gt;U}}^{t}_i$$" style="text;html=1;strokeColor=none;fillColor=none;align=center;verticalAlign=middle;whiteSpace=wrap;rounded=0;fontSize=20;" parent="1" vertex="1">
          <mxGeometry x="940" y="70" width="60" height="30" as="geometry" />
        </mxCell>
        <mxCell id="bqFS861DvB25ZtFm9QSx-44" value="$$\symbf{&lt;br style=&quot;font-size: 20px;&quot;&gt;U}^{t}_i$$" style="text;html=1;strokeColor=none;fillColor=none;align=center;verticalAlign=middle;whiteSpace=wrap;rounded=0;fontSize=20;" parent="1" vertex="1">
          <mxGeometry x="160" y="80" width="60" height="30" as="geometry" />
        </mxCell>
        <mxCell id="bqFS861DvB25ZtFm9QSx-45" value="$$\symbf{\hat{&lt;br style=&quot;font-size: 20px;&quot;&gt;L}}_i^t$$" style="text;html=1;strokeColor=none;fillColor=none;align=center;verticalAlign=middle;whiteSpace=wrap;rounded=0;fontSize=20;" parent="1" vertex="1">
          <mxGeometry x="580" y="440" width="60" height="30" as="geometry" />
        </mxCell>
        <mxCell id="bqFS861DvB25ZtFm9QSx-47" value="" style="endArrow=classic;html=1;rounded=0;" parent="1" edge="1">
          <mxGeometry width="50" height="50" relative="1" as="geometry">
            <mxPoint x="140" y="430" as="sourcePoint" />
            <mxPoint x="140" y="20" as="targetPoint" />
          </mxGeometry>
        </mxCell>
        <mxCell id="bqFS861DvB25ZtFm9QSx-49" value="$$(c \times&lt;br&gt;24 \times&lt;br style=&quot;border-color: var(--border-color);&quot;&gt;24 \times 24)$$" style="text;html=1;strokeColor=none;fillColor=none;align=center;verticalAlign=middle;whiteSpace=wrap;rounded=0;" parent="1" vertex="1">
          <mxGeometry x="10" y="30" width="120" height="30" as="geometry" />
        </mxCell>
        <mxCell id="bqFS861DvB25ZtFm9QSx-51" value="$$(c \times&lt;br&gt;12 \times&lt;br style=&quot;border-color: var(--border-color);&quot;&gt;12 \times 12)$$" style="text;html=1;strokeColor=none;fillColor=none;align=center;verticalAlign=middle;whiteSpace=wrap;rounded=0;" parent="1" vertex="1">
          <mxGeometry x="10" y="120" width="120" height="30" as="geometry" />
        </mxCell>
        <mxCell id="bqFS861DvB25ZtFm9QSx-52" value="$$(c \times&lt;br&gt;6 \times&lt;br style=&quot;border-color: var(--border-color);&quot;&gt;6 \times 6)$$" style="text;html=1;strokeColor=none;fillColor=none;align=center;verticalAlign=middle;whiteSpace=wrap;rounded=0;" parent="1" vertex="1">
          <mxGeometry x="20" y="210" width="120" height="30" as="geometry" />
        </mxCell>
        <mxCell id="bqFS861DvB25ZtFm9QSx-53" value="$$(c \times&lt;br&gt;3 \times&lt;br style=&quot;border-color: var(--border-color);&quot;&gt;3 \times 3)$$" style="text;html=1;strokeColor=none;fillColor=none;align=center;verticalAlign=middle;whiteSpace=wrap;rounded=0;" parent="1" vertex="1">
          <mxGeometry x="20" y="300" width="120" height="30" as="geometry" />
        </mxCell>
        <mxCell id="bqFS861DvB25ZtFm9QSx-54" value="$$(c \times&lt;br&gt;2 \times&lt;br style=&quot;border-color: var(--border-color);&quot;&gt;2 \times 2)$$" style="text;html=1;strokeColor=none;fillColor=none;align=center;verticalAlign=middle;whiteSpace=wrap;rounded=0;" parent="1" vertex="1">
          <mxGeometry x="20" y="390" width="120" height="30" as="geometry" />
        </mxCell>
        <mxCell id="bqFS861DvB25ZtFm9QSx-55" value="" style="endArrow=classic;html=1;rounded=0;" parent="1" edge="1">
          <mxGeometry width="50" height="50" relative="1" as="geometry">
            <mxPoint x="660" y="289.8" as="sourcePoint" />
            <mxPoint x="700" y="289.8" as="targetPoint" />
            <Array as="points">
              <mxPoint x="670" y="289.8" />
            </Array>
          </mxGeometry>
        </mxCell>
        <mxCell id="bqFS861DvB25ZtFm9QSx-56" value="" style="endArrow=classic;html=1;rounded=0;" parent="1" edge="1">
          <mxGeometry width="50" height="50" relative="1" as="geometry">
            <mxPoint x="880" y="375" as="sourcePoint" />
            <mxPoint x="880" y="335" as="targetPoint" />
            <Array as="points" />
          </mxGeometry>
        </mxCell>
        <mxCell id="bqFS861DvB25ZtFm9QSx-57" value="" style="endArrow=classic;html=1;rounded=0;" parent="1" edge="1">
          <mxGeometry width="50" height="50" relative="1" as="geometry">
            <mxPoint x="680" y="335" as="sourcePoint" />
            <mxPoint x="680" y="375" as="targetPoint" />
            <Array as="points" />
          </mxGeometry>
        </mxCell>
        <mxCell id="bqFS861DvB25ZtFm9QSx-59" value="" style="endArrow=classic;html=1;rounded=0;dashed=1;" parent="1" edge="1">
          <mxGeometry width="50" height="50" relative="1" as="geometry">
            <mxPoint x="680.0000000000005" y="390" as="sourcePoint" />
            <mxPoint x="680.0000000000005" y="430.00000000000006" as="targetPoint" />
            <Array as="points" />
          </mxGeometry>
        </mxCell>
        <mxCell id="bqFS861DvB25ZtFm9QSx-60" value="" style="endArrow=classic;html=1;rounded=0;dashed=1;" parent="1" edge="1">
          <mxGeometry width="50" height="50" relative="1" as="geometry">
            <mxPoint x="880" y="430" as="sourcePoint" />
            <mxPoint x="880" y="390" as="targetPoint" />
            <Array as="points" />
          </mxGeometry>
        </mxCell>
        <mxCell id="bqFS861DvB25ZtFm9QSx-61" value="" style="endArrow=classic;html=1;rounded=0;dashed=1;" parent="1" edge="1">
          <mxGeometry width="50" height="50" relative="1" as="geometry">
            <mxPoint x="860" y="289.8" as="sourcePoint" />
            <mxPoint x="900" y="289.8" as="targetPoint" />
            <Array as="points">
              <mxPoint x="890" y="289.8" />
            </Array>
          </mxGeometry>
        </mxCell>
        <mxCell id="bqFS861DvB25ZtFm9QSx-62" value="&lt;font style=&quot;font-size: 20px;&quot;&gt;$$\texttt{DoubleConv}$$&lt;/font&gt;" style="text;html=1;strokeColor=none;fillColor=none;align=left;verticalAlign=middle;whiteSpace=wrap;rounded=0;" parent="1" vertex="1">
          <mxGeometry x="710" y="275" width="150" height="30" as="geometry" />
        </mxCell>
        <mxCell id="bqFS861DvB25ZtFm9QSx-63" value="&lt;font style=&quot;font-size: 20px;&quot;&gt;$$\texttt{MaxPool}$$&lt;/font&gt;" style="text;html=1;strokeColor=none;fillColor=none;align=left;verticalAlign=middle;whiteSpace=wrap;rounded=0;" parent="1" vertex="1">
          <mxGeometry x="710" y="335" width="150" height="30" as="geometry" />
        </mxCell>
        <mxCell id="bqFS861DvB25ZtFm9QSx-64" value="&lt;font style=&quot;font-size: 20px;&quot;&gt;$$\texttt{DownHelper}$$&lt;/font&gt;" style="text;html=1;strokeColor=none;fillColor=none;align=left;verticalAlign=middle;whiteSpace=wrap;rounded=0;" parent="1" vertex="1">
          <mxGeometry x="710" y="395" width="150" height="30" as="geometry" />
        </mxCell>
        <mxCell id="bqFS861DvB25ZtFm9QSx-65" value="&lt;font style=&quot;font-size: 20px;&quot;&gt;$$\texttt{Deconvolution}$$&lt;/font&gt;" style="text;html=1;strokeColor=none;fillColor=none;align=left;verticalAlign=middle;whiteSpace=wrap;rounded=0;" parent="1" vertex="1">
          <mxGeometry x="910" y="335" width="140" height="30" as="geometry" />
        </mxCell>
        <mxCell id="bqFS861DvB25ZtFm9QSx-66" value="&lt;font style=&quot;font-size: 20px;&quot;&gt;$$\texttt{UpHelper1}$$&lt;/font&gt;" style="text;html=1;strokeColor=none;fillColor=none;align=left;verticalAlign=middle;whiteSpace=wrap;rounded=0;" parent="1" vertex="1">
          <mxGeometry x="910" y="395" width="140" height="30" as="geometry" />
        </mxCell>
        <mxCell id="bqFS861DvB25ZtFm9QSx-67" value="&lt;font style=&quot;font-size: 20px;&quot;&gt;$$\texttt{UpHelper2}$$&lt;/font&gt;" style="text;html=1;strokeColor=none;fillColor=none;align=left;verticalAlign=middle;whiteSpace=wrap;rounded=0;" parent="1" vertex="1">
          <mxGeometry x="910" y="275" width="140" height="30" as="geometry" />
        </mxCell>
        <mxCell id="bqFS861DvB25ZtFm9QSx-71" value="" style="endArrow=classic;html=1;rounded=0;" parent="1" edge="1">
          <mxGeometry width="50" height="50" relative="1" as="geometry">
            <mxPoint x="220" y="49.68" as="sourcePoint" />
            <mxPoint x="250" y="49.68" as="targetPoint" />
          </mxGeometry>
        </mxCell>
        <mxCell id="bqFS861DvB25ZtFm9QSx-72" value="" style="endArrow=classic;html=1;rounded=0;" parent="1" edge="1">
          <mxGeometry width="50" height="50" relative="1" as="geometry">
            <mxPoint x="310" y="139.81" as="sourcePoint" />
            <mxPoint x="340" y="139.81" as="targetPoint" />
          </mxGeometry>
        </mxCell>
        <mxCell id="bqFS861DvB25ZtFm9QSx-77" value="" style="shape=cube;whiteSpace=wrap;html=1;boundedLbl=1;backgroundOutline=1;darkOpacity=0.05;darkOpacity2=0.1;size=50;" parent="1" vertex="1">
          <mxGeometry x="580" y="370" width="60" height="60" as="geometry" />
        </mxCell>
        <mxCell id="bqFS861DvB25ZtFm9QSx-78" value="" style="shape=cube;whiteSpace=wrap;html=1;boundedLbl=1;backgroundOutline=1;darkOpacity=0.05;darkOpacity2=0.1;size=40;" parent="1" vertex="1">
          <mxGeometry x="580" y="280" width="60" height="60" as="geometry" />
        </mxCell>
        <mxCell id="bqFS861DvB25ZtFm9QSx-79" value="" style="endArrow=classic;html=1;rounded=0;" parent="1" edge="1">
          <mxGeometry width="50" height="50" relative="1" as="geometry">
            <mxPoint x="609.73" y="280.0000000000001" as="sourcePoint" />
            <mxPoint x="610" y="250" as="targetPoint" />
            <Array as="points" />
          </mxGeometry>
        </mxCell>
        <mxCell id="bqFS861DvB25ZtFm9QSx-80" value="" style="shape=cube;whiteSpace=wrap;html=1;boundedLbl=1;backgroundOutline=1;darkOpacity=0.05;darkOpacity2=0.1;size=30;" parent="1" vertex="1">
          <mxGeometry x="580" y="190" width="60" height="60" as="geometry" />
        </mxCell>
        <mxCell id="bqFS861DvB25ZtFm9QSx-81" value="" style="shape=cube;whiteSpace=wrap;html=1;boundedLbl=1;backgroundOutline=1;darkOpacity=0.05;darkOpacity2=0.1;size=30;" parent="1" vertex="1">
          <mxGeometry x="670" y="190" width="60" height="60" as="geometry" />
        </mxCell>
        <mxCell id="bqFS861DvB25ZtFm9QSx-82" value="" style="shape=cube;whiteSpace=wrap;html=1;boundedLbl=1;backgroundOutline=1;darkOpacity=0.05;darkOpacity2=0.1;size=20;" parent="1" vertex="1">
          <mxGeometry x="670" y="100" width="60" height="60" as="geometry" />
        </mxCell>
        <mxCell id="bqFS861DvB25ZtFm9QSx-83" value="" style="shape=cube;whiteSpace=wrap;html=1;boundedLbl=1;backgroundOutline=1;darkOpacity=0.05;darkOpacity2=0.1;size=20;" parent="1" vertex="1">
          <mxGeometry x="760" y="100" width="60" height="60" as="geometry" />
        </mxCell>
        <mxCell id="bqFS861DvB25ZtFm9QSx-84" value="" style="shape=cube;whiteSpace=wrap;html=1;boundedLbl=1;backgroundOutline=1;darkOpacity=0.05;darkOpacity2=0.1;size=10;" parent="1" vertex="1">
          <mxGeometry x="760" y="10" width="60" height="60" as="geometry" />
        </mxCell>
        <mxCell id="bqFS861DvB25ZtFm9QSx-85" value="" style="shape=cube;whiteSpace=wrap;html=1;boundedLbl=1;backgroundOutline=1;darkOpacity=0.05;darkOpacity2=0.1;size=10;" parent="1" vertex="1">
          <mxGeometry x="850" y="10" width="60" height="60" as="geometry" />
        </mxCell>
        <mxCell id="bqFS861DvB25ZtFm9QSx-86" value="" style="shape=cube;whiteSpace=wrap;html=1;boundedLbl=1;backgroundOutline=1;darkOpacity=0.05;darkOpacity2=0.1;size=10;" parent="1" vertex="1">
          <mxGeometry x="940" y="10" width="60" height="60" as="geometry" />
        </mxCell>
      </root>
    </mxGraphModel>
  </diagram>
</mxfile>
